<svg height="60.891" viewBox="0 0 16.111 16.111" width="60.891" xmlns="http://www.w3.org/2000/svg"><g transform="translate(-36.437 -334.125)"><circle cx="44.493" cy="342.18" r="8.055" fill="#ffd42a"/><path d="M39.025 336.275a8.055 8.055 0 00-2.588 5.905 8.055 8.055 0 008.056 8.055 8.055 8.055 0 007.004-4.088 8.055 8.055 0 01-.46.405 8.055 8.055 0 01-.655.468 8.055 8.055 0 01-.699.401 8.055 8.055 0 01-.735.329 8.055 8.055 0 01-.764.254 8.055 8.055 0 01-.786.176 8.055 8.055 0 01-.8.097 8.055 8.055 0 01-.569.02 8.055 8.055 0 01-.804-.04 8.055 8.055 0 01-.796-.12 8.055 8.055 0 01-.78-.2 8.055 8.055 0 01-.757-.275 8.055 8.055 0 01-.725-.35 8.055 8.055 0 01-.686-.422 8.055 8.055 0 01-.64-.487 8.055 8.055 0 01-.59-.549 8.055 8.055 0 01-.532-.605 8.055 8.055 0 01-.468-.655 8.055 8.055 0 01-.4-.698 8.055 8.055 0 01-.33-.735 8.055 8.055 0 01-.253-.764 8.055 8.055 0 01-.177-.786 8.055 8.055 0 01-.097-.8 8.055 8.055 0 01-.02-.569 8.055 8.055 0 01.04-.804 8.055 8.055 0 01.12-.796 8.055 8.055 0 01.2-.78 8.055 8.055 0 01.276-.757 8.055 8.055 0 01.35-.725 8.055 8.055 0 01.065-.105z" fill="#ffbc2a"/><rect height="3.207" rx="1.604" ry="1.604" width="4.109" x="39.456" y="337.324" fill="#fff"/><ellipse cx="43.452" cy="338.928" rx=".707" ry=".697" fill="#1a1a1a"/><rect height="3.207" rx="1.604" ry="1.604" width="4.109" x="45.837" y="337.324" fill="#fff"/><ellipse cx="49.95" cy="338.928" rx=".707" ry=".697" fill="#1a1a1a"/><path d="M48.49 342.37v.323a.898.898 0 01-.897.898h-2.422V347.367c0 1.02.822 1.841 1.842 1.841.598 0 1.103-.301 1.439-.74.236-.31.401-.68.401-1.101v-3.955c0-.396-.15-.743-.362-1.043z" fill="#1a1a1a"/><path d="M45.171 343.59h2.422a.898.898 0 00.898-.897v-.324c-.333-.471-.855-.798-1.478-.798-1.02 0-1.842.821-1.842 1.841z" fill="#ff8080"/><path d="M45.999 342.753a.424.424 0 00-.425.426v.807h2.472v-.807a.424.424 0 00-.425-.426h-.386a.424.424 0 00-.425.426.424.424 0 00-.425-.426z" fill="#fff"/><path d="M45.212 341.094s-1.158.52-1.134 2.008" fill="none" stroke="#ffbc2a" stroke-width="1.058" stroke-linecap="round" stroke-linejoin="round"/></g></svg>