<svg height="60.891" viewBox="0 0 16.111 16.111" width="60.891" xmlns="http://www.w3.org/2000/svg"><g transform="translate(-72.211 -280.464)"><circle cx="80.266" cy="288.519" r="8.055" fill="#ffd42a"/><path d="M74.798 282.614a8.055 8.055 0 00-2.587 5.905 8.055 8.055 0 008.055 8.055 8.055 8.055 0 007.005-4.087 8.055 8.055 0 01-.46.404 8.055 8.055 0 01-.656.469 8.055 8.055 0 01-.698.4 8.055 8.055 0 01-.735.33 8.055 8.055 0 01-.764.253 8.055 8.055 0 01-.786.177 8.055 8.055 0 01-.8.097 8.055 8.055 0 01-.569.02 8.055 8.055 0 01-.804-.04 8.055 8.055 0 01-.796-.12 8.055 8.055 0 01-.78-.2 8.055 8.055 0 01-.757-.276 8.055 8.055 0 01-.725-.35 8.055 8.055 0 01-.686-.421 8.055 8.055 0 01-.641-.487 8.055 8.055 0 01-.59-.55 8.055 8.055 0 01-.531-.604 8.055 8.055 0 01-.468-.655 8.055 8.055 0 01-.4-.699 8.055 8.055 0 01-.33-.735 8.055 8.055 0 01-.254-.764 8.055 8.055 0 01-.176-.785 8.055 8.055 0 01-.097-.8 8.055 8.055 0 01-.02-.57 8.055 8.055 0 01.04-.804 8.055 8.055 0 01.12-.796 8.055 8.055 0 01.2-.78 8.055 8.055 0 01.276-.757 8.055 8.055 0 01.35-.725 8.055 8.055 0 01.064-.105z" fill="#ffbc2a"/><path d="M75.884 289.673s.377 2.488 4.268 2.488M84.42 289.673s-.377 2.488-4.268 2.488" fill="none" stroke="#1a1a1a" stroke-width="1.058" stroke-linecap="round" stroke-linejoin="round"/><ellipse cx="83.225" cy="284.561" rx="1.894" ry="1.866" fill="#fff"/><ellipse cx="77.446" cy="284.561" rx="1.894" ry="1.866" fill="#fff"/><ellipse cx="77.446" cy="284.561" rx=".707" ry=".697" fill="#1a1a1a"/><ellipse cx="83.225" cy="284.561" rx=".707" ry=".697" fill="#1a1a1a"/></g></svg>